<svg xmlns="http://www.w3.org/2000/svg" viewBox="0 0 1200 630" width="1200" height="630">
  <defs>
    <linearGradient id="bg" x1="0" y1="0" x2="1" y2="1">
      <stop offset="0%" stop-color="#0f172a"/>
      <stop offset="100%" stop-color="#1e1b4b"/>
    </linearGradient>
    <linearGradient id="accent" x1="0" y1="0" x2="1" y2="0">
      <stop offset="0%" stop-color="#7c3aed"/>
      <stop offset="100%" stop-color="#06b6d4"/>
    </linearGradient>
  </defs>
  <rect width="1200" height="630" fill="url(#bg)"/>
  <g opacity="0.18" stroke="#94a3b8" stroke-width="1">
    <path d="M0 120 H1200 M0 240 H1200 M0 360 H1200 M0 480 H1200"/>
    <path d="M120 0 V630 M280 0 V630 M440 0 V630 M600 0 V630 M760 0 V630 M920 0 V630 M1080 0 V630"/>
  </g>
  <rect x="80" y="120" width="180" height="6" rx="3" fill="url(#accent)"/>
  <text x="80" y="240" font-family="ui-monospace, SFMono-Regular, Menlo, monospace" font-size="72" font-weight="800" fill="#f8fafc">AI Ops Field Notes</text>
  <text x="80" y="300" font-family="ui-sans-serif, system-ui" font-size="32" fill="#cbd5e1">EKS · vLLM · Terraform · Karpenter</text>
  <g transform="translate(80,420)" font-family="ui-monospace, SFMono-Regular, Menlo, monospace" font-size="22" fill="#a5b4fc">
    <text y="0">$ kubectl get gpu --all-namespaces</text>
    <text y="36" fill="#94a3b8">NAMESPACE   NAME       STATUS    UTIL    $/hr</text>
    <text y="68" fill="#cbd5e1">inference   vllm-0     Running   84%     1.21</text>
    <text y="100" fill="#cbd5e1">inference   vllm-1     Running   91%     1.21</text>
  </g>
</svg>
