<svg xmlns="http://www.w3.org/2000/svg" viewBox="0 0 1200 630" width="1200" height="630">
  <defs>
    <linearGradient id="bg" x1="0" y1="0" x2="1" y2="1">
      <stop offset="0%" stop-color="#0c0a09"/>
      <stop offset="100%" stop-color="#1c1917"/>
    </linearGradient>
  </defs>
  <rect width="1200" height="630" fill="url(#bg)"/>
  <g font-family="ui-sans-serif, system-ui" fill="#fafaf9">
    <text x="80" y="140" font-size="28" fill="#fbbf24">// observability</text>
    <text x="80" y="220" font-size="64" font-weight="800">Tokens, Latency, $/hr</text>
    <text x="80" y="276" font-size="30" fill="#e7e5e4">Three signals you cannot ship without.</text>
  </g>
  <g transform="translate(80,360)" stroke-width="3" fill="none">
    <rect x="0" y="0" width="1040" height="200" rx="14" fill="#0c0a09" stroke="#44403c"/>
    <polyline points="20,160 80,140 140,150 200,110 260,120 320,80 380,90 440,60 500,70 560,40 620,50 680,30 740,40 800,30 860,50 920,30 980,40 1020,30" stroke="#22d3ee"/>
    <polyline points="20,170 80,168 140,160 200,150 260,158 320,140 380,148 440,130 500,138 560,120 620,128 680,110 740,118 800,100 860,108 920,90 980,98 1020,80" stroke="#f59e0b"/>
    <polyline points="20,180 80,178 140,176 200,172 260,170 320,168 380,165 440,162 500,160 560,156 620,152 680,148 740,144 800,140 860,136 920,132 980,128 1020,124" stroke="#a78bfa"/>
  </g>
  <g font-family="ui-monospace, SFMono-Regular, Menlo, monospace" font-size="18" fill="#e7e5e4">
    <circle cx="900" cy="600" r="6" fill="#22d3ee"/><text x="912" y="606">tok/s</text>
    <circle cx="980" cy="600" r="6" fill="#f59e0b"/><text x="992" y="606">p95 ms</text>
    <circle cx="1080" cy="600" r="6" fill="#a78bfa"/><text x="1092" y="606">$/1k</text>
  </g>
</svg>
